<svg width="604" height="640" viewBox="0 0 604 640" fill="none" xmlns="http://www.w3.org/2000/svg">
<rect width="604" height="640" fill="#1E1E1E"/>
<g id="undraw_audio_player_re_cl20 1" clip-path="url(#clip0_0_1)">
<rect width="604" height="640" fill="url(#paint0_linear_0_1)"/>
<g id="Group 4">
<path id="Path 31" d="M72.8763 0C66.1156 0.00819946 59.634 2.91202 54.8535 8.07439C50.073 13.2368 47.384 20.2361 47.3764 27.5368V611.341C47.384 618.642 50.073 625.641 54.8535 630.804C59.634 635.966 66.1156 638.87 72.8763 638.878H309.547C316.308 638.869 322.789 635.966 327.57 630.803C332.35 625.641 335.039 618.642 335.047 611.341V27.5368C335.039 20.2361 332.35 13.2368 327.57 8.07439C322.789 2.91202 316.308 0.00819946 309.547 0H72.8763Z" fill="#E6E6E6"/>
<path id="Path 32" d="M319.273 135.087V88.2399C305.796 84.8977 293.11 78.5679 282.018 69.6519C270.926 60.7358 261.67 49.4281 254.839 36.4458C251.561 39.0701 247.587 40.4825 243.507 40.4731H209.059C218.251 65.2133 233.246 86.9453 252.569 103.534C271.892 120.122 294.88 130.996 319.273 135.087Z" fill="white"/>
<path id="Path 33" d="M319.273 85.5551V40.5497C319.274 37.2575 318.674 33.9974 317.508 30.9557C316.342 27.914 314.632 25.1502 312.476 22.8223C310.321 20.4944 307.761 18.648 304.944 17.3886C302.128 16.1292 299.109 15.4816 296.06 15.4826H262.615V19.8282C262.619 22.6155 262.098 25.3745 261.084 27.9378C260.071 30.5011 258.585 32.8154 256.719 34.7403C263.327 47.4192 272.297 58.4809 283.064 67.2269C293.831 75.9728 306.16 82.213 319.273 85.5534V85.5551Z" fill="white"/>
<path id="Path 34" d="M158.393 40.4739H136.853C131.784 40.4723 126.923 38.2966 123.34 34.4252C119.756 30.5538 117.744 25.3038 117.744 19.8299V15.4843H86.3665C83.318 15.4841 80.2992 16.1323 77.4827 17.3921C74.6662 18.6519 72.1071 20.4985 69.9515 22.8264C67.7959 25.1543 66.0861 27.918 64.9197 30.9595C63.7533 34.0011 63.1532 37.261 63.1536 40.5531V598.345C63.1504 601.637 63.7487 604.898 64.9143 607.94C66.0799 610.982 67.7899 613.745 69.9463 616.072C72.1026 618.399 74.663 620.244 77.4807 621.501C80.2984 622.757 83.318 623.401 86.3665 623.395H296.063C297.02 623.398 297.975 623.334 298.924 623.206C304.538 622.45 309.704 619.507 313.451 614.93C317.199 610.352 319.27 604.455 319.276 598.345V187.725C243.005 178.185 179.455 119.418 158.393 40.4739Z" fill="white"/>
<path id="Path 35" d="M206.446 40.4739H160.912C181.87 117.955 244.329 175.6 319.274 185.101V137.755C294.229 133.62 270.627 122.459 250.827 105.388C231.028 88.3167 215.724 65.9331 206.445 40.4739H206.446Z" fill="white"/>
<path id="Path 36" d="M303.299 458.471H88.1436C87.0872 458.47 86.0745 458.016 85.3276 457.21C84.5807 456.403 84.1605 455.309 84.1592 454.169V396.535C84.1605 395.394 84.5807 394.301 85.3276 393.494C86.0745 392.688 87.0872 392.234 88.1436 392.233H303.299C304.355 392.234 305.368 392.688 306.115 393.494C306.862 394.301 307.282 395.394 307.283 396.535V454.17C307.282 455.31 306.862 456.404 306.115 457.21C305.368 458.016 304.355 458.47 303.299 458.471ZM88.1436 393.953C87.5095 393.953 86.9015 394.225 86.4531 394.709C86.0048 395.193 85.7529 395.85 85.7529 396.534V454.169C85.7529 454.853 86.0048 455.51 86.4531 455.994C86.9015 456.478 87.5095 456.75 88.1436 456.75H303.299C303.933 456.75 304.541 456.478 304.989 455.994C305.438 455.51 305.69 454.853 305.69 454.169V396.535C305.69 395.85 305.438 395.194 304.989 394.71C304.541 394.226 303.933 393.954 303.299 393.954L88.1436 393.953Z" fill="#E6E6E6"/>
<path id="Ellipse 4" d="M116.033 443.423C125.275 443.423 132.768 435.332 132.768 425.352C132.768 415.371 125.275 407.28 116.033 407.28C106.791 407.28 99.299 415.371 99.299 425.352C99.299 435.332 106.791 443.423 116.033 443.423Z" fill="#AB5C00"/>
<path id="Path 37" d="M154.682 413.304C153.942 413.304 153.232 413.622 152.709 414.186C152.186 414.751 151.892 415.517 151.892 416.316C151.892 417.115 152.186 417.881 152.709 418.446C153.232 419.011 153.942 419.328 154.682 419.328H286.165C286.905 419.328 287.614 419.011 288.138 418.446C288.661 417.881 288.954 417.115 288.954 416.316C288.954 415.517 288.661 414.751 288.138 414.186C287.614 413.622 286.905 413.304 286.165 413.304H154.682Z" fill="#E6E6E6"/>
<path id="Path 38" d="M154.682 431.375C153.942 431.375 153.232 431.693 152.709 432.257C152.186 432.822 151.892 433.588 151.892 434.387C151.892 435.186 152.186 435.952 152.709 436.517C153.232 437.082 153.942 437.399 154.682 437.399H286.165C286.905 437.399 287.614 437.082 288.138 436.517C288.661 435.952 288.954 435.186 288.954 434.387C288.954 433.588 288.661 432.822 288.138 432.257C287.614 431.693 286.905 431.375 286.165 431.375H154.682Z" fill="#E6E6E6"/>
<path id="Path 39" d="M303.299 554.85H88.1436C87.0872 554.849 86.0745 554.395 85.3276 553.588C84.5807 552.782 84.1605 551.688 84.1592 550.548V492.914C84.1605 491.773 84.5807 490.68 85.3276 489.873C86.0745 489.066 87.0872 488.613 88.1436 488.611H303.299C304.355 488.613 305.368 489.066 306.115 489.873C306.862 490.68 307.282 491.773 307.283 492.914V550.548C307.282 551.689 306.862 552.782 306.115 553.589C305.368 554.395 304.355 554.849 303.299 554.85ZM88.1436 490.332C87.5095 490.332 86.9015 490.603 86.4531 491.088C86.0048 491.572 85.7529 492.228 85.7529 492.913V550.548C85.7529 551.232 86.0048 551.889 86.4531 552.373C86.9015 552.857 87.5095 553.129 88.1436 553.129H303.299C303.933 553.129 304.541 552.857 304.989 552.373C305.438 551.889 305.69 551.232 305.69 550.548V492.914C305.69 492.229 305.438 491.573 304.989 491.088C304.541 490.604 303.933 490.332 303.299 490.332L88.1436 490.332Z" fill="#E6E6E6"/>
<path id="Ellipse 5" d="M116.033 539.801C125.275 539.801 132.768 531.711 132.768 521.73C132.768 511.75 125.275 503.659 116.033 503.659C106.791 503.659 99.299 511.75 99.299 521.73C99.299 531.711 106.791 539.801 116.033 539.801Z" fill="#AB5C00"/>
<path id="Path 40" d="M154.682 509.683C153.942 509.683 153.232 510 152.709 510.565C152.186 511.13 151.892 511.896 151.892 512.695C151.892 513.494 152.186 514.26 152.709 514.824C153.232 515.389 153.942 515.707 154.682 515.707H286.165C286.905 515.707 287.614 515.389 288.138 514.824C288.661 514.26 288.954 513.494 288.954 512.695C288.954 511.896 288.661 511.13 288.138 510.565C287.614 510 286.905 509.683 286.165 509.683H154.682Z" fill="#E6E6E6"/>
<path id="Path 41" d="M154.682 527.754C153.942 527.754 153.232 528.071 152.709 528.636C152.186 529.201 151.892 529.967 151.892 530.766C151.892 531.565 152.186 532.331 152.709 532.896C153.232 533.46 153.942 533.778 154.682 533.778H286.165C286.905 533.778 287.614 533.46 288.138 532.896C288.661 532.331 288.954 531.565 288.954 530.766C288.954 529.967 288.661 529.201 288.138 528.636C287.614 528.071 286.905 527.754 286.165 527.754H154.682Z" fill="#E6E6E6"/>
<path id="Path 42" d="M191.193 339.047C181.25 339.051 171.404 336.94 162.217 332.833C153.031 328.727 144.684 322.705 137.653 315.113C130.623 307.521 125.047 298.507 121.244 288.587C117.441 278.666 115.486 268.034 115.49 257.297C115.49 257.125 115.49 256.946 115.499 256.775C115.731 212.006 149.685 175.547 191.193 175.547C201.134 175.547 210.978 177.662 220.163 181.77C229.348 185.878 237.693 191.9 244.723 199.491C251.752 207.082 257.328 216.094 261.133 226.013C264.937 235.931 266.895 246.561 266.895 257.297C266.895 268.033 264.937 278.663 261.133 288.581C257.328 298.5 251.752 307.512 244.723 315.103C237.693 322.694 229.348 328.716 220.163 332.824C210.978 336.932 201.134 339.047 191.193 339.047ZM191.193 177.268C171.627 177.315 152.868 185.698 138.993 200.595C125.118 215.493 117.248 235.701 117.092 256.829C117.083 257.011 117.084 257.158 117.084 257.297C117.082 273.128 121.427 288.604 129.571 301.768C137.714 314.932 149.29 325.193 162.834 331.252C176.378 337.311 191.281 338.897 205.66 335.809C220.038 332.721 233.246 325.098 243.612 313.904C253.978 302.709 261.038 288.447 263.897 272.92C266.757 257.393 265.288 241.299 259.677 226.673C254.066 212.047 244.565 199.547 232.374 190.753C220.184 181.959 205.853 177.266 191.193 177.268Z" fill="#3F3D56"/>
<path id="Path 43" d="M225.476 255.411L173.662 223.106C173.42 222.955 173.145 222.875 172.865 222.875C172.586 222.875 172.311 222.955 172.069 223.106C171.826 223.257 171.625 223.474 171.485 223.736C171.345 223.997 171.272 224.294 171.272 224.596V289.204C171.272 289.506 171.345 289.803 171.485 290.065C171.625 290.327 171.826 290.544 172.069 290.695C172.311 290.846 172.586 290.925 172.865 290.925C173.145 290.925 173.42 290.846 173.662 290.695L225.476 258.39C225.719 258.239 225.92 258.022 226.06 257.76C226.2 257.498 226.273 257.202 226.273 256.899C226.273 256.597 226.2 256.301 226.06 256.039C225.92 255.777 225.719 255.56 225.476 255.409L173.662 223.104C173.42 222.953 173.145 222.873 172.865 222.873C172.586 222.873 172.311 222.953 172.069 223.104C171.826 223.255 171.625 223.472 171.485 223.734C171.345 223.996 171.272 224.292 171.272 224.594V289.204C171.272 289.506 171.345 289.803 171.485 290.065C171.625 290.327 171.826 290.544 172.069 290.695C172.311 290.846 172.586 290.925 172.865 290.925C173.145 290.925 173.42 290.846 173.662 290.695L225.476 258.39C225.719 258.239 225.92 258.022 226.06 257.76C226.2 257.498 226.273 257.202 226.273 256.899C226.273 256.597 226.2 256.301 226.06 256.039C225.92 255.777 225.719 255.56 225.476 255.409V255.411Z" fill="#E5941B"/>
<path id="Path 54" d="M603.685 640H0V638.123H604L603.685 640Z" fill="#3F3D56"/>
<g id="Group 1">
<path id="Ellipse 3" d="M470.695 315.014C482.989 315.014 492.956 304.251 492.956 290.975C492.956 277.698 482.989 266.935 470.695 266.935C458.4 266.935 448.433 277.698 448.433 290.975C448.433 304.251 458.4 315.014 470.695 315.014Z" fill="#FFB8B8"/>
<path id="Path 21" d="M469.255 425.744C468.826 424.299 468.683 422.773 468.838 421.264C468.993 419.756 469.441 418.3 470.153 416.992C470.865 415.684 471.826 414.553 472.971 413.674C474.116 412.794 475.421 412.186 476.799 411.89C477.235 411.799 477.677 411.741 478.121 411.717L501.571 371.076L480.154 349.084C479.326 348.247 478.66 347.24 478.195 346.122C477.731 345.004 477.477 343.797 477.449 342.572C477.421 341.347 477.619 340.128 478.032 338.986C478.444 337.845 479.063 336.803 479.852 335.923C480.642 335.042 481.585 334.34 482.628 333.857C483.672 333.375 484.793 333.121 485.928 333.112C487.063 333.102 488.188 333.337 489.238 333.801C490.288 334.266 491.242 334.952 492.044 335.819L521.618 367.314L521.678 367.393C522.592 368.896 523.034 370.677 522.937 372.473C522.84 374.269 522.209 375.983 521.139 377.361L488.282 419.319C488.38 419.656 488.462 419.998 488.527 420.343C488.802 421.831 488.782 423.365 488.47 424.844C488.157 426.323 487.559 427.714 486.714 428.926C485.869 430.139 484.796 431.144 483.566 431.877C482.336 432.61 480.977 433.054 479.577 433.181C479.293 433.208 479.012 433.221 478.732 433.221C476.624 433.212 474.573 432.484 472.872 431.141C471.17 429.798 469.904 427.909 469.255 425.744Z" fill="#FFB8B8"/>
<path id="Path 22" d="M434.031 625.545H422.918L417.632 579.261H434.032L434.031 625.545Z" fill="#FFB8B8"/>
<path id="Path 23" d="M437.317 637.667H400.581V636.684C400.581 634.642 400.953 632.62 401.677 630.733C402.401 628.847 403.461 627.132 404.799 625.689C406.136 624.245 407.723 623.099 409.47 622.318C411.217 621.537 413.09 621.135 414.98 621.135H437.318L437.317 637.667Z" fill="#2F2E41"/>
<path id="Path 24" d="M544.476 608.955L534.928 615.095L508.458 578.247L522.551 569.187L544.476 608.955Z" fill="#FFB8B8"/>
<path id="Path 25" d="M521.478 637.849L521.015 637.008C519.061 633.465 518.491 629.228 519.429 625.231C520.368 621.234 522.739 617.803 526.02 615.693L545.212 603.352L553.042 617.551L521.478 637.849Z" fill="#2F2E41"/>
<path id="Path 26" d="M416.23 605.163C408.786 510.51 404.357 422.578 431.57 386.708L431.78 386.43L477.575 406.212L477.65 406.388C477.805 406.751 493.035 442.929 489.482 467.263L500.778 523.374L537.609 589.971C537.905 590.507 538.093 591.105 538.159 591.725C538.225 592.346 538.168 592.974 537.993 593.569C537.817 594.164 537.526 594.712 537.139 595.176C536.752 595.64 536.279 596.011 535.75 596.262L519.744 603.867C518.84 604.291 517.826 604.35 516.886 604.033C515.946 603.715 515.143 603.043 514.624 602.139L474.56 531.588L451.929 477.475C451.806 477.181 451.597 476.939 451.334 476.786C451.071 476.633 450.769 476.578 450.474 476.629C450.179 476.68 449.908 476.835 449.703 477.069C449.497 477.303 449.369 477.604 449.338 477.924L436.795 605.259C436.69 606.341 436.217 607.342 435.468 608.07C434.719 608.797 433.747 609.199 432.74 609.198H420.296C419.275 609.191 418.293 608.774 417.541 608.028C416.789 607.282 416.322 606.261 416.23 605.163Z" fill="#2F2E41"/>
<path id="Path 27" d="M431.724 387.458L431.506 387.346L431.472 387.087C429.761 374.158 431.786 359.792 437.49 344.388C440.302 336.85 445.528 330.653 452.216 326.926C458.904 323.2 466.609 322.191 473.927 324.085C478.143 325.207 482.097 327.262 485.539 330.12C488.981 332.978 491.836 336.577 493.923 340.689C495.983 344.758 497.237 349.245 497.608 353.866C497.978 358.487 497.456 363.14 496.074 367.531C488.883 390.239 479.555 411.485 479.461 411.697L479.266 412.14L431.724 387.458Z" fill="#FFAE63"/>
<path id="Path 28" d="M398.773 441.08C398.458 438.469 399.021 435.822 400.361 433.621C401.701 431.42 403.727 429.812 406.072 429.089L448.895 340.308C449.445 339.282 450.18 338.387 451.056 337.673C451.932 336.96 452.932 336.444 453.996 336.155C455.06 335.866 456.167 335.81 457.251 335.991C458.336 336.172 459.375 336.586 460.309 337.209C461.243 337.831 462.051 338.649 462.687 339.615C463.323 340.581 463.773 341.674 464.01 342.831C464.248 343.988 464.268 345.184 464.071 346.349C463.873 347.515 463.46 348.625 462.858 349.616L419.023 437.778C419.115 438.315 419.168 438.858 419.182 439.403C419.22 440.894 418.978 442.378 418.471 443.765C417.964 445.152 417.203 446.414 416.233 447.476C415.263 448.538 414.104 449.377 412.826 449.942C411.548 450.508 410.178 450.789 408.797 450.769C407.283 450.745 405.792 450.36 404.433 449.641C403.073 448.922 401.877 447.886 400.932 446.609C399.748 445.02 398.998 443.105 398.769 441.08H398.773Z" fill="#FFB8B8"/>
<path id="Path 29" d="M443.703 277.395H479.051V260.755C471.293 257.427 463.7 254.596 459.111 260.755C455.025 260.755 451.105 262.508 448.216 265.629C445.326 268.749 443.703 272.982 443.703 277.395Z" fill="#2F2E41"/>
<path id="Path 30" d="M481.008 257.819C502.141 257.819 508.055 286.423 508.055 302.561C508.055 311.56 504.287 314.78 498.364 315.868L496.272 303.82L491.373 316.384C489.709 316.393 487.962 316.358 486.15 316.322L484.489 312.629L480.785 316.256C465.951 316.28 453.962 318.615 453.962 302.559C453.962 286.424 459.149 257.819 481.008 257.819Z" fill="#2F2E41"/>
</g>
<g id="Group 2">
<path id="Path 53" d="M474.712 281.388V259.129C474.712 258.865 474.663 258.604 474.57 258.361C474.477 258.117 474.34 257.896 474.167 257.709C473.994 257.523 473.789 257.375 473.564 257.274C473.338 257.173 473.097 257.121 472.852 257.121H469.134C468.89 257.121 468.648 257.173 468.423 257.274C468.197 257.375 467.992 257.523 467.82 257.709C467.647 257.896 467.51 258.117 467.417 258.361C467.323 258.604 467.275 258.865 467.275 259.129V280.046C464.526 280.528 462.025 282.049 460.218 284.337C458.41 286.625 457.415 289.533 457.408 292.54C457.401 295.548 458.384 298.46 460.182 300.758C461.979 303.056 464.473 304.589 467.22 305.085C469.967 305.581 472.788 305.007 475.18 303.466C477.571 301.924 479.378 299.516 480.278 296.669C481.177 293.823 481.112 290.724 480.092 287.925C479.072 285.126 477.166 282.81 474.712 281.388Z" fill="#C98200"/>
<path id="Ellipse 8" d="M469.754 298.607C472.834 298.607 475.331 295.911 475.331 292.585C475.331 289.26 472.834 286.563 469.754 286.563C466.674 286.563 464.178 289.26 464.178 292.585C464.178 295.911 466.674 298.607 469.754 298.607Z" fill="white"/>
</g>
</g>
</g>
<defs>
<linearGradient id="paint0_linear_0_1" x1="302" y1="0" x2="302" y2="640" gradientUnits="userSpaceOnUse">
<stop stop-color="#FFA500"/>
<stop offset="1" stop-color="#010318"/>
</linearGradient>
<clipPath id="clip0_0_1">
<rect width="604" height="640" fill="white"/>
</clipPath>
</defs>
</svg>
